<?xml version="1.0" standalone="no"?>
<!DOCTYPE svg PUBLIC "-//W3C//DTD SVG 1.1//EN" "http://www.w3.org/Graphics/SVG/1.1/DTD/svg11.dtd" >
<svg xmlns="http://www.w3.org/2000/svg" xmlns:xlink="http://www.w3.org/1999/xlink" version="1.1">
<metadata>
Created by FontForge 20170910 at Sun May 29 18:35:28 2016
 By Jimmy Wärting
 Imagex 2016
</metadata>
<defs>
<font id="JellyCrazies" horiz-adv-x="2874" >
  <font-face 
    font-family="Jelly Crazies"
    font-weight="400"
    font-stretch="normal"
    units-per-em="2048"
    panose-1="3 0 6 0 0 0 0 0 0 0"
    ascent="1638"
    descent="-410"
    cap-height="2375"
    bbox="60 -1224 5185.41 2752"
    underline-thickness="150"
    underline-position="-292"
    unicode-range="U+0020-2026"
  />
<missing-glyph horiz-adv-x="1903" 
d="M60 0v2449h1763v-2449h-1763zM140 80h1603v2289h-1603v-2289z" />
    <glyph glyph-name=".notdef" horiz-adv-x="1903" 
d="M60 0v2449h1763v-2449h-1763zM140 80h1603v2289h-1603v-2289z" />
    <glyph glyph-name=".null" horiz-adv-x="0" 
 />
    <glyph glyph-name="nonmarkingreturn" horiz-adv-x="550" 
 />
    <glyph glyph-name="space" unicode=" " horiz-adv-x="819" 
 />
    <glyph glyph-name="space" unicode="&#xa0;" horiz-adv-x="819" 
 />
    <glyph glyph-name="comma" unicode="," horiz-adv-x="1312" 
d="M614 290q223 0 458 -186q76 -101 108 -164q52 -110 52 -221q0 -466 -973 -895q-75 -48 -147 -48q-52 12 -52 52v22q18 155 268 493q9 2 18 22q-277 175 -277 389v35q0 152 151 341q184 160 394 160zM337 -138q0 -60 73 -69q48 0 204 95q64 25 86 69v5q0 54 -78 82
q-17 8 -47 8h-31q-103 0 -186 -121q-15 -25 -21 -69z" />
    <glyph glyph-name="period" unicode="." horiz-adv-x="1369" 
d="M925 364q271 0 346 -190q18 -54 18 -91v-22q0 -134 -126 -303q-174 -173 -255 -203q-203 -108 -407 -108h-52q-289 0 -372 203q-17 61 -17 100q0 161 169 328q345 286 696 286zM367 -138q14 -26 48 -26q42 0 359 156q73 49 73 99q-16 39 -65 39q-164 0 -372 -168
q-43 -58 -43 -70v-30z" />
    <glyph glyph-name="zero" unicode="0" horiz-adv-x="2675" 
d="M1289 2410q344 0 579 -156q125 -60 364 -307q83 -88 168 -268q195 -393 195 -779q0 -626 -286 -1150q-94 -164 -294 -372q-157 -149 -324 -234q-254 -104 -389 -104q-245 30 -424 104q-435 182 -654 610q-65 109 -103 272q-61 253 -61 520q0 425 121 817q153 402 312 588
q185 221 276 269q282 190 520 190zM328 848h5q0 -4 -5 -4l5 -43v-22l4 -9h-4q0 -5 17 -47h4q9 0 9 9q-5 0 -5 4q19 0 52 143h-4l43 134h-4q39 121 48 138h-5q97 276 225 476q145 204 303 299q144 73 337 116q135 26 135 48v4q0 64 -204 91h-43q-313 0 -614 -381
q-299 -442 -299 -956zM938 398v-30q0 -403 342 -489h4q302 0 433 208q91 158 91 298v5q0 301 -191 484q-84 48 -194 48h-5q-254 0 -398 -216q-82 -161 -82 -308zM1206 -346q0 -53 113 -77q19 -5 65 -5h8l22 5v-5q163 14 346 147q166 154 186 212q59 89 100 230q8 60 13 69
h-5l5 8v52q0 5 4 5l-13 47h-13q-26 -18 -95 -181q-76 -147 -212 -277q-174 -127 -329 -160q-170 -38 -186 -61q0 -9 -9 -9z" />
    <glyph glyph-name="one" unicode="1" horiz-adv-x="2221" 
d="M1263 2458q380 0 713 -156q165 -129 165 -1047q0 -975 -100 -1752q-47 -251 -78 -251q-62 -96 -367 -160q-231 -48 -429 -48q-297 0 -372 161q-21 65 -21 276q0 517 86 1523q-96 -80 -203 -130q-201 -78 -320 -78q-277 136 -277 355q0 142 190 450q124 232 273 424
q8 41 255 273q177 151 290 151q99 9 195 9zM350 1311v-4q0 -29 34 -39q92 0 251 277q118 196 273 359q87 118 385 190v-4q14 7 156 22q4 0 4 -5q42 5 65 13q0 -4 4 -4q0 4 4 4v-4q15 8 26 8v13q0 70 -341 104h-5q-301 0 -553 -367q-136 -178 -230 -364q-73 -137 -73 -199z
" />
    <glyph glyph-name="two" unicode="2" 
d="M1462 2497q453 0 921 -364q372 -331 372 -787v-65q0 -567 -610 -835q-460 -181 -649 -342q-113 -103 -130 -160l9 -4q191 -13 290 -13q316 0 718 104q108 21 177 21h65q113 0 139 -112q30 -93 30 -199q0 -211 -100 -506q-58 -160 -181 -160q-495 -56 -1012 -56
q-657 0 -1316 82q-125 230 -125 558q0 449 216 696q119 143 230 225q243 184 510 299q360 140 571 255q174 109 182 182q0 69 -195 116q-16 5 -48 5h-21q-308 0 -792 -524q-7 -4 -17 -4q-167 0 -467 381q-78 118 -78 246q0 298 463 636q422 325 848 325zM428 1653v-30
q10 -65 56 -65q48 0 173 164q216 205 389 277q155 82 411 125q113 18 143 26v-4l65 22v8q0 61 -242 96h-52q-384 0 -801 -381q-137 -153 -142 -238zM315 -138q14 -121 31 -121q24 0 34 26q7 1 87 173q59 145 207 294q20 13 113 91q234 160 666 350q258 120 389 221
q103 94 117 173l22 69q0 5 -5 5l5 30v13q-11 86 -61 86q0 5 -13 5q-52 -17 -134 -156q-128 -147 -182 -169q-172 -115 -592 -272q-170 -77 -463 -329q-221 -235 -221 -489zM1535 -337q0 -37 113 -69l147 -17q36 4 60 4v-4q9 4 13 4q81 0 139 13l8 -4q316 34 316 90
q27 13 48 78q0 37 -70 52q-347 -65 -718 -99q-52 -9 -52 -31q-4 0 -4 -17z" />
    <glyph glyph-name="three" unicode="3" horiz-adv-x="2878" 
d="M1786 2462q480 0 684 -489q43 -112 43 -234v-56q0 -294 -277 -688v-4q87 -12 277 -108q285 -189 285 -523v-117q0 -407 -277 -710q-409 -497 -1189 -497h-5q-518 0 -674 130q-83 31 -329 268q-63 61 -165 246q-99 186 -99 290q0 190 255 415q291 212 411 212h9
q72 0 95 -116q172 -416 446 -416q178 0 424 178q69 96 69 212q0 122 -273 155h-4q-84 0 -277 -60q-64 34 -130 199q-39 133 -39 242q0 30 173 30q238 20 238 44q160 80 160 129q0 97 -69 173q-36 18 -125 18q-325 0 -857 -277q-109 -52 -151 -56h-22q-75 0 -108 173
q-9 103 -9 147q0 505 143 735q128 143 299 199q436 156 1068 156zM1513 2241q-316 0 -670 -99q-303 -119 -303 -394v-39q0 -28 13 -56h17q40 0 126 143q95 139 242 181q348 99 554 104q47 9 130 18v-5q26 9 78 13v-4q155 20 155 47v22q-6 0 -39 30q-81 39 -199 39h-8l-22 5
v-5l-9 5h-30l-22 -5v5q-8 -5 -13 -5zM1479 896v-4q10 -22 43 -22h4q99 0 238 87q78 75 78 151l-4 9q0 4 4 4q-16 78 -43 78q0 4 -4 4h-5q-59 0 -142 -138q-36 -42 -152 -134q-17 -19 -17 -35zM1159 -173q14 -36 82 -60q12 -17 164 -22q123 0 320 95q80 48 152 117
q121 140 138 217h-4q9 27 13 56h-4l4 8q0 10 -9 65h5q-20 65 -52 65h-13q-42 -27 -130 -173q-140 -200 -480 -294q-182 -27 -182 -61q-4 -8 -4 -13zM337 39q0 -48 39 -82h30q50 0 160 147q61 58 61 100q-13 73 -65 73h-22q-84 0 -182 -164q-12 -28 -21 -74z" />
    <glyph glyph-name="four" unicode="4" horiz-adv-x="2467" 
d="M1206 2471q413 0 532 -122q22 -38 22 -60v-30q0 -31 -117 -217q-283 -500 -437 -835q-99 -269 -99 -346q8 -52 21 -52q247 31 883 152q159 21 234 21h21q121 0 121 -203q0 -341 -181 -450q-31 -21 -299 -104q-38 -297 -86 -458q-70 -216 -182 -381q-39 -88 -177 -186
q-267 -186 -433 -186h-30q-234 0 -234 238q0 74 113 766h-130q-439 0 -619 307q-69 137 -69 290v21q0 442 606 1445q88 144 255 312q84 73 182 73q25 5 103 5zM324 805q0 -95 47 -95h5q0 5 34 39q48 103 134 333q222 503 437 826q61 91 156 156q130 103 130 143
q-11 43 -78 43q-244 0 -523 -558q-33 -42 -156 -303q-186 -393 -186 -584zM1310 641v4q-108 -13 -108 -65q0 -39 108 -78h9q56 0 78 -8l8 4q9 -4 13 -4v4l9 -4q58 0 424 121q87 37 99 82l5 9q-13 30 -44 30h-17q-141 -17 -510 -87q-43 0 -74 -8z" />
    <glyph glyph-name="five" unicode="5" horiz-adv-x="2658" 
d="M1786 2501q627 0 718 -87q74 -47 74 -194q-29 -499 -230 -593q-28 -34 -186 -56q-748 -65 -1064 -65h-160q-8 -234 -8 -277q247 52 488 52q847 -6 1064 -424q74 -141 74 -311v-35q0 -454 -290 -870q-203 -250 -363 -350q-357 -255 -783 -255q-300 0 -450 86
q-144 59 -342 238q-200 232 -251 450q-17 61 -17 87v17q0 328 329 459q7 4 21 4h22q26 -8 225 -108q247 -108 428 -108h18q246 0 410 220q18 29 18 61q0 49 -277 121q-90 13 -221 17q-268 0 -835 -95h-4q-71 0 -82 350q-4 122 -4 256v73q0 464 30 1229q0 84 1648 108z
M627 2259q-41 4 -78 4q-135 0 -191 -121q-12 -40 -12 -82q10 -87 60 -87q75 14 208 130q47 0 60 4v-4l9 4q222 13 281 13v4q4 0 4 -4l22 4h43q10 0 18 5q8 -5 13 -5l8 5q5 0 5 -5q2 0 17 5q43 0 281 8v5l9 -5h13q4 0 4 5l9 -5q9 0 17 5l9 -5q8 5 13 5v-5l8 5q5 0 5 -5l8 5
q149 4 182 4v4l9 -4q9 0 17 4q4 0 4 -4l52 4h255q90 0 113 35q8 27 8 43q0 52 -220 52q0 5 -108 5h-5l-8 4v-4q-9 4 -13 4q-574 0 -1129 -30zM1176 1056h-26l-22 -4v4q-60 -9 -82 -17q0 -66 351 -91h21l22 -4v4l9 -4q216 -9 263 -9v-4q44 4 44 8l8 -4q31 0 31 13h4v-9
q13 0 13 18q-29 80 -441 108q-76 -9 -195 -9zM847 -73v-4q0 -29 143 -78q80 -18 173 -18q232 0 459 173q105 115 121 234q0 30 4 30l-9 48h5q-18 56 -39 56q0 9 -9 9h-21q-38 0 -135 -152q-150 -161 -242 -181q-185 -78 -298 -78q-152 -19 -152 -39z" />
    <glyph glyph-name="six" unicode="6" horiz-adv-x="2550" 
d="M1327 2397h26q228 -2 597 -104q169 -70 169 -125q78 -130 78 -320q0 -165 -69 -398q-34 -91 -121 -91h-9q-141 0 -510 147q-121 30 -182 30q-298 0 -485 -424q-17 -69 -17 -91q437 225 766 225h34q438 0 705 -411q161 -293 161 -601v-78q0 -662 -727 -926
q-319 -129 -645 -129h-147q-211 31 -432 186q-172 156 -204 220q-255 366 -255 1056v121q0 920 355 1311q191 171 350 251q282 151 562 151zM328 1060h5l-5 -8v-26q0 -5 5 -5q0 -4 -5 -4q9 -99 13 -99l-4 -9v-4l21 -5q0 15 13 35q-4 8 -4 13q4 0 13 17l-4 9l8 17h-4
q56 322 121 480q156 337 463 463q143 56 355 91q77 9 95 13v-4q7 3 52 8v-4l9 4q173 3 173 26v13q-29 41 -186 74q-104 21 -199 21q-283 0 -563 -199q-372 -271 -372 -917zM1448 1068q-59 -3 -326 -94q-15 -15 -20 -35q3 -45 112 -54q4 4 11 4l13 -3v4l6 -3h9q2 0 2 4
q3 0 3 -4q101 20 132 21q0 4 3 5l1 -4l5 4l25 1l33 7v-5l5 6q120 7 133 64q-3 58 -97 85l-25 -1q-3 0 -3 4l-6 -5q-2 0 -2 4zM886 303q43 -242 242 -242h31q115 0 238 151q21 36 30 104q0 123 -134 199q-83 31 -173 31q-136 0 -212 -143q-22 -50 -22 -100zM1168 -126v-6
q0 -45 101 -64v4l6 -4h39l7 4q0 -4 3 -4v4q5 -4 9 -4q74 6 155 58q106 85 131 183q3 23 6 30h-3q3 6 3 9l-3 16h3q-11 73 -39 73q-29 0 -104 -119q-82 -102 -277 -152q-37 -18 -37 -28z" />
    <glyph glyph-name="seven" unicode="7" horiz-adv-x="2991" 
d="M1946 2514h35q675 0 882 -143q48 -46 48 -86v-5q0 -153 -139 -636q-103 -299 -246 -584h4q244 -16 273 -52q77 -48 77 -138v-9q0 -133 -103 -320q-81 -84 -195 -99q-144 -17 -463 -26q-132 -189 -545 -658q-636 -709 -852 -709q-121 0 -121 117q0 266 324 982
q103 207 139 302h-5l-480 18q-59 9 -99 69q-22 55 -22 125q0 98 199 290q74 61 195 95q161 31 281 48l169 13q21 84 34 164h-4q-325 -60 -610 -60q-462 0 -580 112q-64 54 -82 541q0 367 117 510q36 39 169 39q968 100 1600 100zM298 2025v-26q0 -49 56 -82h9q0 13 91 65
q111 99 203 99v-4q10 4 43 9v-5l39 9v-4l9 4l307 22v4q4 0 4 -4q350 30 467 30q0 4 5 4v-4l8 4h57l26 4q4 0 4 -4l22 4h39q4 0 4 5q8 -5 13 -5q4 0 34 5v-5l9 5h35l21 4v-4l9 4h69q5 0 5 4l8 -4h13l43 4v-4l9 4h4q5 0 5 -4l8 4h165q4 0 4 -4q8 4 13 4q4 0 4 -4l22 4
q23 -4 26 -4q0 4 4 4q0 -4 5 -4v4l8 -4h9q4 0 4 4q9 -4 13 -4q9 4 13 4v-4q5 0 5 4l21 -4h30l9 4v-4l9 4q4 0 4 -4q74 16 74 56q0 49 -186 65q-149 18 -290 18q-5 0 -5 4q-4 0 -4 -4l-22 4h-17q-507 0 -1337 -65q-184 0 -250 -147q-9 -41 -9 -65zM1194.5 972.5
q-80.5 -7.5 -191.5 -33.5q-132 -53 -164 -121q-13 -31 -13 -39q0 -44 82 -52q366 23 424 65q95 47 95 78q29 22 60 135q12 59 -29 94q-28 13 -50.5 15t-77.5 -66t-135.5 -75.5zM960 -333v-13l4 -8q83 68 160 212q129 198 134 290l9 51h-4l4 9v9q0 4 -4 4l4 9q-8 60 -39 60
q-34 0 -95 -177q-173 -357 -173 -446z" />
    <glyph glyph-name="eight" unicode="8" 
d="M1107 2475q292 0 783 -87q407 -95 545 -264q71 -84 112 -298q22 -133 35 -346q0 -363 -441 -571h-5v-4q156 -13 329 -117q329 -241 329 -766v-4q0 -261 -151 -550q-158 -245 -455 -346q-326 -78 -649 -78q-839 0 -1258 571q-221 262 -221 697q0 457 359 614q51 35 208 78
v4q-120 159 -186 312q-95 211 -95 407q0 327 263 579q198 169 498 169zM605 1852v-4q8 -100 43 -100q39 0 108 126q79 124 143 147q169 95 416 95h99q4 0 4 -4l9 4h9l8 -4v4l9 -4q4 0 4 4l9 -4h52q4 0 4 -5l9 5h8q10 0 18 -5l8 5l91 -9v4l9 -4q4 0 4 4l9 -4h4q10 0 18 4
q7 -4 17 -4l8 4v-4l9 4q4 0 4 -4q31 5 31 17h4v-13q9 0 9 9l-13 21l-9 -4q0 25 -259 78q-274 43 -407 43h-35q-310 0 -437 -294q-17 -59 -17 -108zM1202 1233q0 -72 91 -108q44 -4 69 -4q166 0 342 104q47 47 47 69q0 124 -328 147q-90 0 -178 -95q-35 -58 -43 -113z
M1529 978v-10q32 -21 80 -21h16q150 0 184 130q3 8 3 23q-1 39 -28 43q-24 0 -73 -61q-43 -48 -132 -81q-25 0 -50 -23zM999 308v-13q0 -254 147 -333q74 -52 173 -52h13q113 0 277 121q190 188 190 476q0 77 -216 95h-65q-131 -2 -385 -91q-103 -51 -121 -117
q-13 -38 -13 -86zM1939 201q-26 -21 -93 -147q-109 -198 -359 -285q-147 -28 -147 -55q0 -3 -3 -9q17 -32 64 -48q41 -10 61 -10h25q4 0 4 -3l6 3q4 0 4 -3l6 3h6q143 0 298 138q129 134 160 262q5 0 10 52q-4 6 -4 9h4q-7 93 -42 93zM278 509l1 -4q19 -67 59 -68
q160 219 186 236q169 84 162 109l-3 13q-10 36 -249 -12q-147 -42 -166 -223z" />
    <glyph glyph-name="nine" unicode="9" horiz-adv-x="2415" 
d="M1297 2414q422 0 710 -294q193 -196 285 -610q43 -224 43 -415v-104q0 -376 -142 -882q-95 -245 -243 -459q-74 -95 -155 -169q-194 -206 -312 -255q-238 -147 -458 -147h-87q-238 0 -502 143q-124 68 -177 220q-30 193 -30 381v26q0 270 108 333q33 13 47 13h26l156 -65
q85 -21 134 -21h35q295 0 493 398q87 235 87 350q-151 -116 -368 -212q-173 -61 -273 -61h-73q-213 0 -377 208q-164 260 -164 532q0 505 554 878q129 99 346 165q171 47 337 47zM315 1467q5 -8 5 -13h-5q12 -82 31 -82q29 0 60 86q173 363 446 493q96 52 242 87
q280 30 346 43q16 12 17 35q-74 56 -117 56q-49 17 -116 17h-52q-307 0 -619 -276q-238 -239 -238 -446zM752 1086q9 -43 35 -43q96 0 251 112q216 230 216 329q-34 182 -104 182h-17q-179 0 -338 -381q-43 -92 -43 -199zM1118 976.5q58 7.5 116 31.5q156 62 228 182
q47 91 47 152h-4l4 8v4l-4 9h4q-15 78 -52 78h-4q-39 -5 -130 -199q-90 -139 -167.5 -169t-86.5 -67t49 -29.5zM614 -64q-121 0 -128 -37t82 -84.5t287 -41t451 239.5q170 186 229 360q21 65 26 112q-4 8 -4 13q0 4 4 4q-7 121 -56 121v5q-43 0 -139 -225
q-59 -106 -147 -204q-144 -138 -216 -164q-191 -99 -389 -99z" />
    <glyph glyph-name="equal" unicode="=" horiz-adv-x="1810" 
d="M1388 900h221q121 0 121 -181v-39q0 -451 -82 -563q-42 -56 -195 -56q-317 -39 -835 -39h-437q-103 0 -121 294v69q0 374 125 442q0 17 844 65q172 8 359 8zM298 502v-13q7 -47 48 -47h38q31 0 178 56q124 13 130 13v-4l8 4q340 22 398 22l9 4q4 0 4 -4l22 4h30
q97 0 113 52q17 14 17 43v4q0 37 -56 52q-818 -24 -818 -43q-121 -60 -121 -143z" />
    <glyph glyph-name="A" unicode="A" horiz-adv-x="3181" 
d="M1596 2453h56q184 0 424 -277q285 -413 285 -428q740 -1167 740 -2284q0 -202 -47 -238q-100 -151 -407 -151h-65q-217 0 -532 69q-84 42 -143 182q-86 275 -86 437q-7 0 -18 199q-120 -39 -290 -39h-38q0 -378 -178 -736q-100 -143 -329 -143h-69q-251 0 -722 156
q-117 71 -117 225v4q0 365 147 965q145 482 316 809q151 292 389 619q151 208 472 540q116 91 212 91zM380 -64l4 -18h5q14 0 138 416q141 420 320 757l152 251q131 205 303 415q176 220 285 272q74 50 74 100q-23 56 -87 56q-176 0 -627 -662q-280 -427 -433 -904
q-134 -426 -134 -683zM1496 485v-26l5 -30q246 42 246 112q9 54 9 87q-18 225 -74 225q-7 4 -21 4q-92 -54 -135 -199q-30 -101 -30 -173zM1675 333v-4q0 -42 100 -52q57 0 143 46q76 52 76 118q0 79 -56 79q-35 0 -83 -62t-115 -77t-65 -48z" />
    <glyph glyph-name="B" unicode="B" horiz-adv-x="3051" 
d="M942 2401q992 0 1376 -441q190 -233 190 -419v-65q0 -294 -458 -580q-154 -82 -160 -82v-5q248 -18 588 -186q493 -296 493 -553v-65q0 -223 -359 -498q-265 -189 -662 -311q-553 -152 -947 -152q-555 0 -653 342q-290 754 -290 2540v86q0 87 125 216q179 128 455 156
q80 13 302 17zM307 1917q11 -78 39 -78q19 0 164 121q40 43 203 82q169 31 528 48q52 4 52 17q-30 40 -389 65h-130q-349 0 -433 -147q-34 -53 -34 -108zM999 1186v-52q0 -44 -5 -108q9 -55 9 -65q277 154 277 363q-10 74 -69 74q-212 0 -212 -212zM1094 316
q0 -124 121 -264q63 -43 117 -43h39q142 0 186 108l13 35q0 60 -78 130q-59 43 -190 78l-156 21q-52 -11 -52 -65zM1469 -133q0 -22 52 -35q23 -5 40 -5q119 0 170 134q0 1 5 27q-7 52 -32 52q-19 0 -82 -62q-92 -68 -141 -92q-12 -12 -12 -19zM1032 841q-3 -18 45 -24
q23 -2 39 0q119 12 193 130q0 2 10 24q3 43 -23 41q-18 -2 -92 -61q-103 -67 -156 -92q-14 -12 -16 -18z" />
    <glyph glyph-name="C" unicode="C" horiz-adv-x="2839" 
d="M1946 2453q442 0 558 -168q130 -162 130 -507v-21q0 -300 -74 -506q-78 -147 -190 -147q-25 0 -216 13q-546 0 -900 -329q-113 -149 -113 -264v-13q0 -4 -4 -4l4 -9v-13q0 -182 212 -316q165 -78 303 -78q0 -4 5 -4q121 0 307 104q74 40 251 220q45 9 56 9
q259 0 467 -394q17 -49 17 -86v-22q-29 -161 -233 -406q-507 -489 -1129 -489q-425 0 -896 450q-441 587 -441 1176q0 457 251 896q413 619 1073 835q230 73 562 73zM350 957v-31q0 -11 8 -39h13q28 24 113 238q271 586 848 852q337 122 437 122q208 32 259 51l9 13v9
q-27 42 -169 48q-10 4 -78 4q-610 0 -1094 -515q-251 -288 -316 -545q-30 -131 -30 -207zM1561 -151q37 -60 186 -60q235 0 502 199q47 47 47 82q0 40 -60 47q-44 0 -316 -138q-115 -48 -324 -100q-35 -17 -35 -30z" />
    <glyph glyph-name="D" unicode="D" horiz-adv-x="3250" 
d="M869 2272h95q964 0 1743 -770q463 -478 463 -943q0 -597 -709 -1155q-435 -312 -952 -312q-478 0 -1008 260q-143 157 -251 536q-83 288 -155 926q-35 332 -35 540v156q0 560 229 692q0 17 364 61q128 9 216 9zM324 1796q11 -87 30 -87h9q5 0 56 52q177 160 290 160
q45 12 432 43q26 11 26 18v4q-126 56 -363 56h-160q-249 0 -307 -177q-13 -28 -13 -69zM1064 580v-21q0 -248 95 -511q40 -30 108 -30q188 0 372 104q104 95 104 203q0 180 -251 337q-131 57 -268 57h-9q-134 0 -134 -39q-14 0 -17 -100zM1289 -211q0 -52 168 -61
q264 0 463 260q61 104 61 177q-12 82 -35 82h-9q-32 0 -99 -104q-142 -208 -454 -298q-95 -18 -95 -56z" />
    <glyph glyph-name="E" unicode="E" horiz-adv-x="3112" 
d="M1604 2427q393 0 883 -99q224 -65 294 -147q35 -30 35 -199q4 -91 4 -126q0 -441 -164 -536q-197 -143 -775 -143q-239 0 -554 26q9 -108 9 -195q-4 -37 -4 -43q364 69 536 69h69q152 0 152 -125v-13q0 -135 -108 -320q-122 -156 -455 -156h-64q-23 0 -74 4q0 -37 4 -77
q-4 -105 -8 -135h4q584 113 904 113h52q247 0 346 -87q342 -272 342 -488v-57q0 -190 -277 -389q-623 -234 -1267 -234q-458 0 -918 117q-105 71 -194 303q-96 217 -217 865q-99 562 -99 909v73q0 465 208 610q525 480 1336 480zM328 1571v-30q0 -65 30 -65q49 37 139 177
q182 245 740 389q317 70 718 70q0 4 52 8v9q-223 69 -541 69q-592 0 -999 -350q-139 -147 -139 -277zM1535 -4q0 -53 208 -65q90 5 545 74q43 17 47 30v9q-33 52 -216 52h-242q-342 -27 -342 -100z" />
    <glyph glyph-name="F" unicode="F" horiz-adv-x="2952" 
d="M1769 2518h173q616 0 701 -43q229 -108 229 -415v-61q0 -286 -173 -800q-90 -221 -217 -221q-408 -26 -709 -26h-78q-205 0 -355 13l83 -246h8q488 142 853 142q65 0 116 -103q18 -49 18 -126q0 -228 -104 -402q-32 -34 -104 -48q-198 -47 -424 -47q-59 0 -212 8
q65 -251 65 -463v-90q0 -296 -134 -550q-82 -121 -195 -121h-17q-114 0 -255 125q-978 1297 -978 2194q3 881 472 1103q375 177 1237 177zM350 1649v-13q0 -65 21 -65q24 20 122 225q109 185 298 251q346 151 1337 151q195 0 199 30v9q0 56 -653 56q-929 0 -1130 -203
q-194 -172 -194 -441zM1565 550v-4q0 -29 117 -35h35q264 0 264 151q0 65 -48 74h-13q-39 -12 -225 -113q-130 -34 -130 -73z" />
    <glyph glyph-name="G" unicode="G" horiz-adv-x="2952" 
d="M1777 2445q485 0 991 -390q104 -108 104 -290q0 -358 -394 -960q-53 -30 -121 -30q-157 0 -606 138q-92 18 -151 18h-39q-279 0 -411 -312q-26 -51 -39 -164q0 -205 255 -368q95 -48 165 -48h26q195 0 445 243q212 186 381 186h17q132 0 230 -130q151 -307 151 -636
q0 -377 -190 -740q-158 -142 -299 -142h-34q-198 0 -390 246q-53 100 -82 242q0 5 -4 5q-364 -204 -666 -204q-703 0 -1013 1125q-43 209 -43 372v65q0 764 792 1419q450 355 925 355zM346 944v-48q0 -33 17 -39q24 0 134 260q113 232 277 411q9 30 242 242q255 191 402 238
q164 65 450 121l22 21q0 45 -221 61h-8q-492 0 -1021 -601q-294 -396 -294 -666zM1488 -186v-4q0 -48 129 -56q17 -4 31 -4q239 0 519 216q151 88 151 160v13q0 37 -56 47q-57 0 -312 -173q-116 -83 -441 -177q-21 -18 -21 -22z" />
    <glyph glyph-name="H" unicode="H" horiz-adv-x="2515" 
d="M2007 2449q264 0 337 -121q30 -59 69 -454q22 -244 22 -481v-160q0 -841 -234 -2046q-64 -151 -324 -151h-65q-328 0 -394 134q-14 0 -52 878q-242 26 -272 35q-37 -775 -52 -775q-66 -72 -160 -103q-186 -70 -299 -70q-209 0 -298 208q-225 1213 -225 2094
q11 700 69 700q93 100 519 100q352 0 416 -134q34 -56 47 -1108v-237q196 17 238 17v182q0 829 39 1306q26 52 91 95q197 91 528 91zM248 1860q0 -54 40 -82h20q56 0 236 154q77 35 77 76v21q-39 56 -153 56q-149 0 -211 -159q-9 -40 -9 -66zM1311.5 685
q-130.5 -10 -122.5 -70v-13q16 -69 126 -69h34q97 0 203 121q65 74 65 216q-4 83 -26 87h-4q-88 8 -116.5 -127t-159 -145zM1534 2047q0 -54 40 -82h20q56 0 236 154q77 35 77 76v21q-39 56 -153 56q-149 0 -211 -159q-9 -40 -9 -66z" />
    <glyph glyph-name="I" unicode="I" horiz-adv-x="1213" 
d="M540 2375h30q176 0 411 -129q52 -39 52 -143q100 -1144 100 -2038v-164q0 -688 -30 -688q-21 -50 -117 -95q-130 -48 -377 -48q-380 0 -467 96q-63 60 -82 878v95q0 841 186 2033q101 203 294 203zM377 1945q0 -37 43 -132h13q265 171 265 274v33q-20 66 -78 66h-43
q-111 0 -193 -170q0 -4 -7 -71z" />
    <glyph glyph-name="J" unicode="J" horiz-adv-x="2506" 
d="M1907 2475h17q323 0 420 -190q26 -34 56 -303q26 -233 26 -467q0 -943 -398 -2016q-233 -532 -614 -532h-26q-499 0 -1280 925q-48 53 -48 113v47q0 107 99 251q65 57 143 57h56q177 0 572 -204q41 -21 90 -21h5q140 0 164 354q4 50 4 95q0 479 -225 1545v21
q0 160 515 269q244 56 424 56zM1254 2047v-26q7 -65 52 -65h9q37 0 190 104q137 34 359 82q35 23 35 30v26q0 33 -139 43q-157 0 -385 -60q-121 -61 -121 -134zM882 -60v-9q57 -60 182 -60q174 0 324 207q69 114 69 260q-6 71 -21 73h-5q-27 -18 -112 -160
q-91 -121 -182 -177l-246 -121z" />
    <glyph glyph-name="K" unicode="K" horiz-adv-x="2632" 
d="M601 2458h95q475 0 593 -156q21 -37 21 -87q-86 -492 -86 -895v-139q338 323 735 740q107 134 173 134h39q116 0 251 -303q130 -284 130 -432v-13q0 -60 -39 -113q-42 -109 -156 -263q-202 -231 -337 -303q-90 -61 -134 -78q92 -314 211 -558q115 -227 286 -472
q138 -177 138 -186q5 -7 5 -21q0 -135 -286 -251l-73 -9q-99 0 -264 126q-510 324 -701 692h-4q0 -151 -70 -697q-66 -148 -333 -155q-252 0 -341 307q-394 1185 -394 2111v52q0 417 82 783q42 94 191 151q137 35 268 35zM333 2016v-4q0 -70 38 -82q214 168 243 177
q186 35 186 61v13q0 38 -243 56q-153 0 -220 -169zM1281 1048q2 -102 104.5 -93.5t279.5 175.5q426 420 428 475q13 16 13 44v13q0 27 -30 43h-17q-58 0 -212 -173q-256 -278 -340 -316.5t-175 -93.5q-51 -38 -51 -74z" />
    <glyph glyph-name="L" unicode="L" horiz-adv-x="2368" 
d="M484 2505h69q223 0 563 -143q164 -90 164 -164v-35l-113 -674q-69 -485 -69 -788q0 -430 134 -605q74 -83 169 -83h4q20 0 320 48q80 4 117 4h95q297 0 347 -212q4 -22 4 -43v-43q0 -217 -402 -407q-61 -43 -364 -181q-435 -186 -735 -186q-450 0 -606 411
q-62 87 -112 739q-9 232 -9 372q0 890 216 1917q84 73 208 73zM376 2076q-56 -256 26.5 -166.5t227.5 142.5t155 122q9 94 -153 124q-181 26 -256 -222zM1326 -182v-15q37 -53 158 -53h54q378 25 378 121q-33 30 -121 30q-469 -28 -469 -83z" />
    <glyph glyph-name="M" unicode="M" horiz-adv-x="3614" 
d="M1224 2527h52q166 0 220 -130q117 -197 264 -692h4q91 323 170.5 514t128.5 191q95 39 238 39q207 0 493 -74q138 -87 359 -692q169 -518 337 -1799q44 -300 44 -403v-60q0 -193 -104 -251q-263 -156 -584 -156q-243 0 -316 113q-35 38 -35 242q-43 492 -99 792
q-52 247 -100 436h-8q-82 -290 -186 -519q-85 -188 -216 -354q-85 -100 -113 -100h-4q-29 0 -134 143q-170 227 -290 506q-54 111 -113 281h-8v-4q-100 -601 -100 -1025q4 -122 4 -256q0 -105 -142 -186q-120 -39 -247 -39q-408 0 -601 148q-78 58 -78 272v13
q0 636 446 2643q64 169 363 312q227 95 355 95zM436 385v-4h5q52 218 281 1315q85 270 251 372q190 89 190 143q0 52 -82 61q-124 0 -286 -143q-80 -89 -108 -242q0 -60 -181 -991q-70 -417 -70 -511zM1977 1663q80 34 103 68q32 23 117 216q28 76 218 143q37 16 33 60
q-24 70 -130 70q-132 0 -246 -212q-38 -93 -106.5 -236t11.5 -109z" />
    <glyph glyph-name="N" unicode="N" horiz-adv-x="2883" 
d="M2188 2484q206 0 377 -96q103 -68 138 -186q35 -182 78 -934q17 -267 22 -696q0 -894 -156 -1406q-71 -117 -225 -117h-26q-256 0 -601 199q-139 92 -243 246q-193 310 -393 978h-5v-17q0 -507 83 -1064q5 0 8 -70q0 -138 -151 -186q-74 -13 -121 -13q-551 0 -679 121
q-126 98 -126 269q-108 1000 -108 1713v73q0 779 147 1095q46 39 199 39q321 0 744 -100q209 -71 247 -147q199 -261 445 -1030h5v13q0 279 -74 840q-4 45 -4 121v34q0 204 56 243q172 78 363 78zM268 1997q14 -105 67 -105q129 70 314 222q124 55 124 61q0 23 -198 98
l-55 7q-177 0 -239 -198q-13 -54 -13 -85zM1913 2131q0 -49 36 -73h18q49 0 209 137q69 31 69 67v19q-35 50 -136 50q-133 0 -188 -141q-8 -36 -8 -59z" />
    <glyph glyph-name="O" unicode="O" horiz-adv-x="2658" 
d="M1345 2436h4q787 0 1056 -947q173 -515 173 -943v-39q0 -964 -935 -1367q-266 -96 -480 -96q-659 0 -995 809q-108 299 -108 623v48q0 629 320 1267q85 164 234 321q317 324 731 324zM363 952v-21q0 -32 13 -35q26 30 130 346q146 372 294 545q145 189 471 286
q173 40 173 64v9q-22 47 -186 56q-342 0 -610 -376q-93 -131 -186 -381q-99 -318 -99 -493zM1141 455q0 -234 178 -316q30 -13 86 -22q146 0 307 212q52 104 52 182q0 284 -350 424q-35 3 -35 9q-145 0 -229 -360q-9 -93 -9 -129zM1358 -90v-9q39 -52 130 -52h38
q246 0 437 312q48 102 48 181q-7 74 -26 74h-4q-34 0 -130 -160q-125 -191 -394 -281q-99 -30 -99 -65z" />
    <glyph glyph-name="P" unicode="P" horiz-adv-x="3095" 
d="M1167 2384q1069 0 1636 -506q212 -224 212 -459v-73q0 -294 -286 -705q-469 -606 -1445 -606q74 -749 74 -787q0 -82 -121 -130q-29 -17 -178 -26q-413 19 -467 91q-28 0 -82 229q-196 633 -359 1674q-91 747 -91 1000q0 59 108 147q261 151 999 151zM315 1934
q0 -61 52 -69q39 0 199 121q290 69 580 69q406 13 406 31q-28 46 -484 69h-87q-519 0 -597 -82q-69 -55 -69 -139zM1141 1013q0 -162 57 -355h4q208 145 208 337v31q-13 112 -78 112q-137 0 -182 -78q-9 -30 -9 -47zM1280 571q0 -18 48 -16q23 3 39 7q114 33 167 162
q0 1 6 25q-5 43 -30 36q-17 -5 -79 -76q-91 -83 -139 -118q-11 -13 -12 -20z" />
    <glyph glyph-name="Q" unicode="Q" horiz-adv-x="2627" 
d="M1587 2509q307 0 411 -121q77 -56 169 -328q82 -213 164 -710q17 -111 17 -233v-61q0 -464 -121 -1181q91 -96 208 -294q112 -178 112 -312v-64q0 -239 -484 -416q-75 -13 -113 -13q-68 0 -177 48q-149 142 -190 251q-9 0 -74 142q-160 -77 -618 -151q-50 -4 -96 -4h-73
q-380 0 -571 329q-91 236 -91 705q0 407 108 1025l100 415q60 211 142 377q78 163 208 285q134 133 472 234q270 77 497 77zM346 684q-5 0 -5 -4h5l-5 -9v-43l-4 -22h4l-4 -9v-86l-4 -9h4l-4 -8v-147q0 -10 4 -18q0 -4 -4 -4q4 -39 13 -65q-5 0 -5 -4l13 -9v4q-4 0 -4 5
q18 0 21 47q5 0 5 5q-5 8 -5 13q9 0 9 8q0 5 -4 5l21 90q0 5 -4 5l13 60h-4q4 13 21 126h-4q9 14 9 21h-5l18 65h-5l13 44h-4l17 64h-4q4 13 9 13l-5 9q5 13 9 13q0 4 -4 4q108 503 155 602q-4 0 -4 4q7 0 48 125q125 315 354 416q181 80 450 129q191 21 191 78q0 55 -96 78
q-34 9 -82 9h-13q-312 0 -614 -165q-182 -135 -229 -250q-65 -93 -134 -333q-147 -594 -147 -857zM934 174v-70q9 -284 130 -333h21q70 0 182 139q112 227 112 428q0 207 -125 454q-53 35 -87 35q-124 0 -216 -446q-17 -99 -17 -207zM1025 -397q24 -48 116 -48h35
q158 0 312 104q69 63 103 142q39 68 78 234l13 108q-4 8 -4 18h4l-4 8v5q0 4 4 4q-8 22 -8 30h4q-4 22 -9 22l5 8q-17 44 -31 52h-8q-29 -14 -122 -259q-112 -234 -307 -307q-181 -64 -181 -113v-8z" />
    <glyph glyph-name="R" unicode="R" horiz-adv-x="3155" 
d="M1215 2393q1047 0 1614 -455q246 -214 246 -445v-74q0 -272 -359 -670q-251 -236 -467 -333q-208 -96 -376 -134v-5q173 -165 324 -216q234 -52 329 -86q112 -53 112 -130q-32 -226 -117 -385q-236 -446 -359 -446h-13q-93 14 -307 208q-263 269 -463 554
q-140 196 -216 328h-4v-4q134 -768 143 -857q-35 -151 -290 -151h-39q-319 0 -463 82q-33 25 -52 126q-398 1514 -398 2781v9q0 83 147 169q276 134 1008 134zM294 1934v-17q0 -69 56 -104q16 0 95 65q106 91 143 91q195 39 259 39q5 0 5 4q4 0 4 -4q34 8 82 8h4l9 5
q0 -5 4 -5q0 5 5 5v-5l8 5q131 4 165 8v-4l8 4h91q5 0 5 5l8 -5q5 0 5 5l8 -5l9 5v-5l9 5q4 0 4 -5l9 5q4 0 13 -5l21 5q4 0 4 -5l22 5h121q5 0 5 -5l8 5q8 -5 18 -5v5l8 -5h22q30 0 95 -4v4l9 -4h43q15 0 39 -4q8 4 13 4q0 -4 4 -4v4l9 -4h17q10 0 17 4q13 -4 13 -9l9 5h17
l9 -5v5l9 -5h30q4 0 4 5l9 -5h4q5 0 5 5l8 -5q37 0 56 9q9 -4 13 -4q-1 16 -39 39q0 -5 -4 -5q0 5 -47 26v-4q-293 104 -809 104q-621 0 -710 -113q-60 -63 -60 -134zM1016 1073q0 -280 69 -363q13 0 13 -4q173 34 277 90q143 91 143 217q0 55 -87 112q-161 43 -255 43
q-160 0 -160 -95zM1306 633q-3 -18 45 -24q23 -2 39 0q119 12 193 130q0 2 10 24q3 43 -23 41q-18 -2 -92 -61q-103 -67 -156 -92q-14 -12 -16 -18z" />
    <glyph glyph-name="S" unicode="S" horiz-adv-x="2787" 
d="M1327 2423h48q325 0 770 -95q135 -43 212 -100q121 -93 121 -445v-5q0 -373 -242 -597q-43 -17 -74 -17h-56q-140 0 -484 156q-188 82 -312 82h-13q-141 0 -194 -134l-5 -39q0 -75 139 -86q597 -65 787 -139q194 -76 337 -186q136 -133 225 -307q121 -213 121 -567
q0 -340 -250 -618q-281 -290 -905 -290q-658 0 -1111 190q-118 54 -217 156q-164 179 -164 445v22q0 561 199 731q51 43 104 43q87 0 554 -250q100 -61 346 -130q107 -22 138 -22q381 0 381 126q0 119 -95 138q-189 35 -498 35l-39 -5q-198 0 -467 104q-168 88 -268 260
q-147 328 -147 696q0 483 333 675q285 173 726 173zM519 1731q8 -135 38 -143h13q22 1 109 182q93 143 199 181q135 57 311 87q11 0 52 9v-5l35 9v-4q7 3 51 8v-4q10 4 65 9v-5l9 5h48l8 4v-4l9 4h17q5 0 5 -4l8 4h56q5 0 5 -4l8 4q5 0 5 -4q4 0 4 4l30 -4h83l21 -5v5l9 -5
h56q4 0 4 -4l9 4h4l22 -4v4l9 -4l21 4v-4l9 4h4q5 0 5 -4l8 4l9 -4l9 4l8 -4q43 8 43 35q-33 34 -134 60q-313 65 -553 65q-577 -9 -710 -350q-21 -73 -21 -130zM302 169q13 -186 48 -194h4q19 4 52 51h4l-4 9q9 0 43 52q9 0 78 82q35 65 35 108q0 78 -82 100
q-116 0 -169 -160q-9 -42 -9 -48zM1407 -44q110 -45 202 -45q325 0 413 205l25 78v25q0 69 -68 87q-37 9 -151.5 -129t-263.5 -140.5t-175.5 -14t-17 -32.5t35.5 -34z" />
    <glyph glyph-name="T" unicode="T" horiz-adv-x="2973" 
d="M977 2445h117q682 0 1622 -160q177 -105 177 -308v-17q0 -199 -103 -424q-36 -52 -113 -52q-335 -43 -709 -73v-5q26 -304 26 -540q0 -728 -165 -1709q-66 -130 -359 -130h-104q-281 0 -328 117q-143 1145 -143 1990v216q-107 -4 -164 -4q-537 0 -537 21q-79 70 -95 165
q-39 140 -39 415q0 325 78 402q52 52 593 87q0 8 246 9zM713 2228q-81 0 -173 -8l-8 4q-170 0 -234 -143q-9 -40 -9 -65q10 -90 61 -90h8q19 0 113 56q81 73 125 73v-4q14 4 78 13v-4q23 8 91 8q0 5 4 5v-5l9 5h35l26 4q4 0 4 -4l22 4h39l8 4v-4l9 4q4 0 4 -4l9 4h82
q10 0 17 5q5 0 5 -5q43 5 65 5h177q4 0 4 -5l9 5h9q4 0 4 -5l9 5h60q4 0 4 -5l9 5q4 0 4 -5q9 5 13 5q39 -5 48 -5v5l9 -5h43q4 0 4 -4q4 0 4 4l18 -4q26 0 199 -9q0 -4 4 -4q0 4 4 4v-4q5 0 5 4q143 -14 143 -17l8 4q31 0 61 -8l8 4q22 0 22 -9l9 5q4 0 4 -5q4 0 4 5
q162 -18 217 -26v4l30 -9v5q10 -4 56 -9l9 4l8 -4q8 4 18 4q4 0 4 -4q44 0 61 30v5q0 65 -290 90q-609 87 -865 87q0 4 -5 4v-4q-4 0 -4 4q-173 5 -260 5h-246l-9 -5v5q-8 -5 -13 -5z" />
    <glyph glyph-name="U" unicode="U" horiz-adv-x="2649" 
d="M1116 2427q268 0 354 -255q13 -136 13 -316q0 -365 -104 -770q-60 -346 -60 -584q0 -234 95 -424q44 -63 69 -73h9q119 0 151 164q22 103 22 199v35q0 185 -69 605q-13 141 -18 334q0 313 109 376q224 182 514 182h48q180 0 216 -165q104 -273 104 -731v-320
q0 -821 -138 -1030q-106 -168 -325 -311q-507 -307 -1168 -307h-30q-529 0 -662 316q-186 698 -186 1189q0 919 43 1090q22 190 69 247q189 294 675 493q161 56 269 56zM328 1558h-4q0 -5 4 -5l-4 -21v-39l4 -30h-4l4 -9v-56q0 -5 5 -5l-5 -8q0 -5 5 -5l-5 -8l5 -22l-5 -8
q5 -8 5 -18h-5q5 -10 9 -43h-4l4 -9v-30h9v-9h-9l9 -17q-5 0 -5 -4h9v-5l-4 -8l8 -5h4l-4 9q0 13 13 13v9h-9v8q5 0 13 5q0 4 -4 4l13 48q-4 0 -4 4q8 0 8 9h-4l4 8q0 5 -4 5q71 323 247 497l151 104q84 39 225 95q56 72 56 100v17q-15 56 -69 56q-176 0 -450 -203
q-212 -176 -212 -424zM1760 1432q36 -103 108 -138h9q26 10 26 17q-4 0 -4 5q13 2 77 86q105 74 139 177v13q0 58 -74 70q-91 0 -259 -165q-22 -27 -22 -65zM1501 -192q0 -52 92 -78q17 0 29 -4q107 15 204 112q79 109 79 230q3 0 3 3h-3l3 7l-3 7q3 0 3 3h-3l3 6
q-3 36 -3 63q-4 0 -4 3h4q-9 35 -14 36l4 7v3q-6 0 -17 10h-3q-15 -7 -76 -145q-63 -89 -147 -144q-30 -20 -119 -66q-32 -24 -32 -53z" />
    <glyph glyph-name="V" unicode="V" horiz-adv-x="2956" 
d="M938 2440h74q115 0 134 -91q148 -309 233 -1202q7 1 70 164q164 352 437 813q52 48 151 48q225 0 709 -221q130 -71 130 -121q-16 -96 -117 -424q-271 -802 -597 -1358q-216 -369 -471 -696q-185 -253 -307 -295q-47 -17 -87 -17h-34q-154 0 -308 216q-276 510 -510 1147
q-132 357 -251 878q-134 662 -134 913q0 108 779 242q58 4 99 4zM315 1990q9 -99 65 -99v-4q44 0 195 112q216 44 216 82q6 0 22 35v30q0 51 -95 61q-155 -5 -316 -70q-87 -60 -87 -147zM1634 1229q80 34 103 68q32 23 250 404q28 76 218 143q37 16 33 60q-24 70 -130 70
q-132 0 -246 -212q-74 -166 -191 -366.5t-37 -166.5z" />
    <glyph glyph-name="W" unicode="W" horiz-adv-x="3428" 
d="M912 2384q139 0 195 -169q107 -342 195 -995q4 0 13 -65h4q197 424 385 424q234 0 342 -402h4q95 402 298 952q33 84 104 117h87q301 0 627 -186q182 -147 182 -290v-5q0 -418 -433 -1574q-235 -592 -441 -848q-179 -242 -307 -242h-9q-205 0 -471 411q-139 275 -139 354
h-4q-301 -860 -511 -860h-43q-121 0 -298 237q-141 171 -182 286q-114 177 -238 593q-82 269 -186 1098q-26 304 -26 455q0 283 52 324q109 115 350 221q172 92 403 164h47zM298 1752v-4q0 -83 48 -121h4q29 0 91 91q116 138 138 138q199 90 199 182v9q0 54 -69 60
q-84 0 -264 -112q-147 -107 -147 -243zM2265.5 1252q73.5 46 91.5 83q28 28 183 438q16 80 193 176q34 21 23 64q-34 65 -139 49q-130 -21 -210 -248q-47 -176 -131 -392t-10.5 -170zM1418 994q80 34 103 68q32 23 80 96q58 86 225 143q37 16 33 60q-24 70 -130 70
q-132 0 -246 -212q-16 -45 -80.5 -152t15.5 -73z" />
    <glyph glyph-name="X" unicode="X" horiz-adv-x="2826" 
d="M718 2397q81 0 138 -95q205 -244 558 -688q407 347 787 636q85 26 152 26q260 0 389 -441q4 -37 4 -61q0 -49 -116 -255q-145 -274 -377 -588q-173 -206 -173 -217q224 -301 563 -839q8 -39 8 -56v-26q0 -216 -519 -597q-142 -95 -229 -95q-75 0 -121 99l-424 658
l-627 -775q-33 -21 -57 -21h-30q-183 0 -528 813q-56 156 -56 234v56q0 63 251 359q96 125 372 415q-536 865 -536 878q-5 51 -5 74v35q0 275 359 410q126 61 217 61zM1501 1501l1 -8q4 -38 93 -65q38 0 45 1q7 4 10 5l1 -4q111 21 212 90q50 33 261 257q145 149 144 165
q19 33 17 50l-2 15q-4 44 -64 38q-74 -8 -375 -317q-111 -101 -296 -174q-49 -31 -47 -53zM250 140l-1 -9q-9 -71 41 -92h4q48 -1 192 173l227 202q147 151 165 292q3 98 -36 103l-9 1q-40 5 -119 -125q-69 -87 -115 -129q-243 -227 -298 -304q-45 -65 -51 -112zM315 1997
q-40 -180 18 -117t160 100.5t109 85.5q6 66 -108 87q-127 19 -179 -156z" />
    <glyph glyph-name="Y" unicode="Y" horiz-adv-x="2679" 
d="M2093 2449q407 -8 407 -39q99 -70 99 -407v-13q0 -439 -108 -1185q-43 -210 -125 -290q-174 -138 -450 -138v-4q4 -9 4 -13q13 -264 13 -455v-99q-14 -684 -60 -684q-69 -82 -234 -82q-219 0 -498 169q-190 134 -190 242q-21 94 -21 199q0 235 51 839q-457 130 -683 355
q-131 160 -169 281q-69 138 -69 398q0 352 134 567q37 54 143 78q142 39 398 39h60q109 0 234 -83q56 -56 56 -116v-35q0 -80 -73 -333q-9 -50 -9 -104q0 -268 316 -268q151 0 151 82q-52 486 -52 662v52q9 281 165 333q253 52 510 52zM1696 1936q109 22 193.5 89t215 68.5
t136.5 93.5v4q3 65 -111 67t-272.5 11t-227.5 -175q-43 -180 66 -158zM303 1760q15 -202 64 -202v5q30 32 89 143q227 179 227 253v9q0 54 -80 64h-24q-193 0 -267 -217q-9 -42 -9 -55zM1297 1064q0 -28 40 -46q45 -20 80 -20h38q86 0 164 77q83 86 83 179q0 2 3 2l-6 29
q0 3 3 3q-6 57 -12 57l4 6q-15 26 -15 29q-22 0 -54 -69q-23 -47 -104 -130q-86 -57 -195 -89q-26 -12 -29 -28z" />
    <glyph glyph-name="Z" unicode="Z" horiz-adv-x="3199" 
d="M1410 2393q733 0 1432 -182q255 -116 255 -389v-78q0 -165 -87 -415q-72 -122 -341 -334q-489 -375 -1125 -778v-9q213 -13 346 -13h21q312 0 739 83q79 8 182 8h22q147 0 177 -56q78 -266 78 -541q-25 -471 -87 -488q-636 -96 -1175 -96h-199q-838 0 -1411 216
q-108 323 -95 610q5 379 86 669q27 164 1004 625v4h-4q-725 -65 -991 -65q-52 24 -82 95q-95 232 -95 463v43q0 207 69 446q39 56 221 95q526 87 1060 87zM298 1917v-26q17 -91 60 -91q9 0 100 74q110 95 356.5 118.5t386.5 30t430 2.5t441 -15t270 -22.5t151 -13t28 15.5
q0 86 -852 178q-199 13 -380 13q-821 -23 -866 -78q-125 -73 -125 -186zM378 339l-3 -47l3 -22h-5l5 -9q-7 -155 15 -156l-5 -9v-4q3 0 17 -6h4l1 4l-9 1q15 14 24 33l4 -1v5q0 4 -4 5q11 21 15 21l-4 8q15 26 32 76q105 211 289 306l470 228q223 131 257 251t-70 97.5
t-196 -99.5t-259 -168t-215 -100q-283 -140 -340 -298q-22 -57 -26 -116zM1730 -64q0 -30 43 -61q37 -21 571 -22q4 0 121.5 8t167.5 66q35 40 35 74q-13 60 -83 60h-4q-35 0 -462 -61q-368 -8 -368 -38z" />
    <glyph glyph-name="quoteleft" unicode="&#x2018;" horiz-adv-x="1313" 
d="M679 1238q-224 0 -459 186q-75 101 -108 164q-52 110 -52 221q0 466 974 895q75 48 147 48q52 -12 52 -52v-22q-18 -155 -269 -493q-9 -2 -17 -22q277 -175 277 -389v-35q0 -152 -151 -341q-184 -160 -394 -160zM956 1666q0 60 -74 69q-47 0 -203 -95q-64 -25 -87 -69v-5
q0 -54 78 -82q17 -8 48 -8h30q103 0 186 121q16 25 22 69z" />
    <glyph glyph-name="quoteright" unicode="&#x2019;" horiz-adv-x="1313" 
d="M614 2752q224 0 459 -186q75 -101 108 -164q52 -110 52 -221q0 -466 -974 -895q-75 -48 -147 -48q-52 12 -52 52v22q18 155 269 493q9 2 17 22q-277 175 -277 389v35q0 152 151 341q184 160 394 160zM337 2324q0 -60 74 -69q47 0 203 95q64 25 87 69v5q0 54 -78 82
q-17 8 -48 8h-30q-103 0 -186 -121q-16 -25 -22 -69z" />
    <glyph glyph-name="quotedblleft" unicode="&#x201c;" horiz-adv-x="2955" 
d="M679 1238q-224 0 -459 186q-75 101 -108 164q-52 110 -52 221q0 466 974 895q75 48 147 48q52 -12 52 -52v-22q-18 -155 -269 -493q-9 -2 -17 -22q277 -175 277 -389v-35q0 -152 -151 -341q-184 -160 -394 -160zM956 1666q0 60 -74 69q-47 0 -203 -95q-64 -25 -87 -69v-5
q0 -54 78 -82q17 -8 48 -8h30q103 0 186 121q16 25 22 69zM2321 1238q-224 0 -459 186q-75 101 -108 164q-52 110 -52 221q0 466 974 895q75 48 147 48q52 -12 52 -52v-22q-18 -155 -269 -493q-9 -2 -17 -22q277 -175 277 -389v-35q0 -152 -151 -341q-184 -160 -394 -160z
M2598 1666q0 60 -74 69q-47 0 -203 -95q-64 -25 -87 -69v-5q0 -54 78 -82q17 -8 48 -8h30q103 0 186 121q16 25 22 69z" />
    <glyph glyph-name="quotedblright" unicode="&#x201d;" horiz-adv-x="2955" 
d="M614 2752q224 0 459 -186q75 -101 108 -164q52 -110 52 -221q0 -466 -974 -895q-75 -48 -147 -48q-52 12 -52 52v22q18 155 269 493q9 2 17 22q-277 175 -277 389v35q0 152 151 341q184 160 394 160zM337 2324q0 -60 74 -69q47 0 203 95q64 25 87 69v5q0 54 -78 82
q-17 8 -48 8h-30q-103 0 -186 -121q-16 -25 -22 -69zM2256 2752q224 0 459 -186q75 -101 108 -164q52 -110 52 -221q0 -466 -974 -895q-75 -48 -147 -48q-52 12 -52 52v22q18 155 269 493q9 2 17 22q-277 175 -277 389v35q0 152 151 341q184 160 394 160zM1979 2324
q0 -60 74 -69q47 0 203 95q64 25 87 69v5q0 54 -78 82q-17 8 -48 8h-30q-103 0 -186 -121q-16 -25 -22 -69z" />
    <glyph glyph-name="ellipsis" unicode="&#x2026;" horiz-adv-x="5292" 
d="M1182 177q234 -135 205 -338q-13 -55 -31 -87l-11 -19q-67 -116 -260 -200q-237 -63 -323 -48q-230 8 -406 110l-45 26q-251 145 -221 361q15 62 35 96q80 140 310 200q442 75 747 -101zM448 21q-2 -29 27 -46q37 -21 389 -44q89 5 114 48q5 43 -37 67q-143 82 -406 40
q-66 -29 -72 -39zM3080 177q234 -135 205 -338q-13 -55 -31 -87l-11 -19q-67 -116 -260 -200q-237 -63 -323 -48q-230 8 -406 110l-45 26q-251 145 -221 361q15 62 35 96q80 140 310 200q442 75 747 -101zM2346 21q-2 -29 27 -46q37 -21 389 -44q89 5 114 48q5 43 -37 67
q-143 82 -406 40q-66 -29 -72 -39zM4978 177q234 -135 204 -338q-12 -55 -30 -87l-11 -19q-67 -116 -260 -200q-237 -63 -323 -48q-230 8 -406 110l-45 26q-251 145 -221 361q15 62 35 96q80 140 310 200q442 75 747 -101zM4244 21q-2 -29 27 -46q37 -21 389 -44
q89 5 114 48q5 43 -37 67q-143 82 -406 40q-66 -29 -72 -39z" />
    </font>
</defs>
</svg>
